<svg width="1024" height="1024" viewBox="0 0 1024 1024" fill="none" xmlns="http://www.w3.org/2000/svg">
<rect x="91" y="91" width="792" height="792" fill="white" stroke="#008235" stroke-width="20"/>
<rect x="141" y="141" width="792" height="792" stroke="#FEE685" stroke-width="20"/>
<path d="M417.696 692.8C392.496 692.8 369.896 689.2 349.896 682C330.296 674.8 313.696 664.4 300.096 650.8C286.496 636.8 276.096 620 268.896 600.4C261.696 580.8 258.096 558.6 258.096 533.8C258.096 509 261.496 486.2 268.296 465.4C275.496 444.6 285.696 426.6 298.896 411.4C312.096 396.2 328.096 384.4 346.896 376C366.096 367.6 387.896 363.4 412.296 363.4C435.096 363.4 455.496 367.2 473.496 374.8C491.496 382.4 506.696 393.8 519.096 409C531.496 423.8 540.696 442.4 546.696 464.8C552.696 486.8 554.696 512.4 552.696 541.6L307.296 543.4V499.6L508.896 497.8L482.496 522.4C484.896 499.6 483.096 481 477.096 466.6C471.096 451.8 462.496 441 451.296 434.2C440.096 427 427.296 423.4 412.896 423.4C396.496 423.4 382.096 427.8 369.696 436.6C357.296 445 347.696 457.4 340.896 473.8C334.496 489.8 331.296 509.4 331.296 532.6C331.296 567.4 338.896 593.4 354.096 610.6C369.696 627.8 390.896 636.4 417.696 636.4C429.696 636.4 439.696 635 447.696 632.2C456.096 629 463.096 625 468.696 620.2C474.296 615 478.696 609.2 481.896 602.8C485.496 596.4 488.296 589.6 490.296 582.4L556.296 597.4C553.096 612.2 547.896 625.4 540.696 637C533.496 648.6 524.096 658.6 512.496 667C501.296 675.4 487.896 681.8 472.296 686.2C456.696 690.6 438.496 692.8 417.696 692.8ZM593.041 802.6C589.441 802.6 585.841 802.2 582.241 801.4C578.641 801 574.641 800.4 570.241 799.6L564.241 733.6C585.041 735.2 600.041 733 609.241 727C618.441 721.4 623.041 708.4 623.041 688V371.2H699.241V688C699.241 707.6 696.841 724.6 692.041 739C687.641 753.4 681.041 765.2 672.241 774.4C663.441 784 652.241 791 638.641 795.4C625.441 800.2 610.241 802.6 593.041 802.6ZM660.841 322C645.641 322 633.841 318.8 625.441 312.4C617.441 305.6 613.441 296 613.441 283.6C613.441 271.2 617.441 261.8 625.441 255.4C633.841 248.6 645.641 245.2 660.841 245.2C676.841 245.2 688.841 248.4 696.841 254.8C704.841 261.2 708.841 270.8 708.841 283.6C708.841 296 704.641 305.6 696.241 312.4C688.241 318.8 676.441 322 660.841 322Z" fill="black"/>
</svg>
